<mxfile host="app.diagrams.net" modified="2023-05-07T15:33:44.133Z" agent="Mozilla/5.0 (Windows NT 10.0; Win64; x64) AppleWebKit/537.36 (KHTML, like Gecko) Chrome/112.0.0.0 Safari/537.36" etag="z6QwCQ0jnPcewHKueYyJ" version="21.2.9" type="device">
  <diagram name="Страница 1" id="W28yFzyXiOZ-AW-k7hNg">
    <mxGraphModel dx="1366" dy="836" grid="1" gridSize="10" guides="1" tooltips="1" connect="1" arrows="1" fold="1" page="1" pageScale="1" pageWidth="827" pageHeight="1169" math="0" shadow="0">
      <root>
        <mxCell id="0" />
        <mxCell id="1" parent="0" />
      </root>
    </mxGraphModel>
  </diagram>
</mxfile>
